<svg xmlns="http://www.w3.org/2000/svg" version="1.1" width="600px" height="600px" viewBox="0 0 200 200" style="overflow:hidden!important;"><g id="svga-group-wrapper"><g id="svga-group-backs-single"><path id="SvgjsPath19170" d="M0 0h200v200H0V0z" fill="#c5e0dc" stroke-width="none" opacity="1"></path></g><g id="svga-group-humanwrap-move" transform="matrix(1,0,0,1,0,0)"><g id="svga-group-humanwrap"><g id="svga-group-hair-back-move" transform="matrix(1,0,0,1,0,0)"><g id="svga-group-hair-back"><path id="SvgjsPath19144" d="M73.5 42.9 55 55.6l-4.3 23.1v42.8l-1.8 11-4.9 9.2 7.7-9.2-4.9 15.1 6.4-11.5 2.6-6.1-.5 13.6s-3.3 11.5-2.8 10.8 5.1-10.8 5.1-10.8l3.6-9.5-1.3 11.3-2.8 11 4.9-8.7-1.8 9.7 4.9-8.7 3.8-9.2-.8 11-1.3 8.2 3.8-8.7 1.8-9.2.5 9.5-1 10 2.8-7.7 1.3 8.2 6.2-11.8 38.7.3 3.1 10.5.5-11.8 2.1 7.9 3.3 2.1-2.3-4.6-1-10.2 5.6 10.2 4.4 3.6-3.3-5.4-2.6-10.5 4.9 9.5 3.3 2.3-3.3-7.7-.3-12.3 4.9 13.1 1 5.6s1-5.6.8-6.9c-.3-1.3-3.1-14.1-3.1-14.1l6.7 16.1 2.1 1.3-5.4-24.3 5.6 14.6 5.4 7.7-4.9-13.6-1.3-10.8 4.6 12.8s-3.3-22-3.3-23.3S147 82 147 82l-.4-17.4-32.7-27.1-40.4 5.4z" fill="#1b141c" stroke-width="none" opacity="1"></path></g></g><g id="svga-group-humanbody-back"><path id="SvgjsPath18897" d="m170 180.3-27.3-6.9-18-9.9-1.5-28.2H76.8l-1.5 28.2-18 9.9-27.3 6.9-9.1 19.7-3 20h164.2l-3-20z" fill="#dba47a" stroke-width="none" opacity="1"></path><path id="SvgjsPath18898" d="m76.8 135.3-1.5 28.2-18 9.9-27.3 6.9-9.1 19.7-3 20h14.6v-20l2.7-17.7 23.8-6.4 24.7-8.3 3.5-32.3z" fill="#bc7843" stroke-width="none" opacity="1"></path></g><g id="svga-group-chinshadow-single"><path id="SvgjsPath18893" d="m121.5 149.1 2.2-3.8-.5-10H76.8l-.8 15.9 13.8 9.6h14.8z" fill="#ad642d" stroke-width="none" opacity="1"></path></g><g id="svga-group-humanbody-front"><path id="SvgjsPath18899" d="m92.8 168.3 2 7.9 6.9 4.6s-8.5-3-8.7-3.6c-.2-.6-.2-8.9-.2-8.9z" fill="#bc7843" stroke-width="none" opacity="1"></path></g><g id="svga-group-clothes-single"><path id="SvgjsPath19053" d="m184.7 220-8.1-35.4-4.8-3.5-1.5-2-17.6-6.8-8.6-15.9-3.8-1.6-7.3-9-9.4-3.1.6 11-1.3 10.1-8.9 9.1-8.1 9.8-2.5 5-1.7-3.2-4.5-3.8-11.2-7.8-8.9-9.1-1.3-10.1.6-11-9.4 3.1-7.3 9-3.8 1.6-8.6 15.9-17.6 6.8-1.5 2-4.8 3.5-8.1 35.4z" fill="#386e77" stroke-width="none" opacity="1"></path><path id="SvgjsPath19054" d="m134.2 188.8-15 3.8-9.9.2-.1-1.7 1.3-.1-.7-2.3-3.2.3-.1 2.3.8-.1v1.6h-2.1l2.1.2.1 5.9-.7 7.4 1.6 7.5.3 4.8 2.6-1-.3-5.1-2-6.6.9-7.3-.3-5.6 9.7.7 15.8-4.1 16-12.2 2-5.3-3.2 4.1-15.6 12.6zm-32.2 4.3-2.5-.2.2-1.8.6.1 1.2-2.2-3.3-2.3-2 1.9 1.2 2.3h.1v1.9l-1.5-.1-26-6.9-15.8-11 1.9-11L59 160l11 18.7 17.7 7.2-14.8-7.9-8.1-12.4 2.2-19.8-7.2 8.9-3.8 1.7-8.6 15.8-17.7 6.8-1.5 2-4.8 3.5-8.1 35.5h10.2l1.3-14.3 3.3-18.1 2.9 2.6 2.6 13.9 1.2 15.9v-16.2l-2.6-15.3-2.2-4.3 1.4-1.7 16.7-6L69 187.3l26.8 6.2 1.5-.1-.1 3.4 1.4 9.9s-3 9.8-2.8 9.9c.3.2 1.7 2.8 1.8 2.6.1-.3 3.5-12.5 3.5-12.5l-1.9-10.4.3-3.1 2.5-.1zm-26.2-39.4.6-10.8-4 5.1-.7 8.4 5.4 7.5-1.3-10.2zm49.1 11 6.7-6.9-.7-10.8-7.3-4.3.6 11-1.3 10.2-8.9 9.1-8.1 9.8-2.5 5 6.5-8.5 15-14.6zm-18.1 22.4 22.9-5 11.2-13.4 3.2-12.3-3.8-1.7-2.4 13-8.6 13.1-22.5 6.3zm56.5 9.7.8 21.6.5-20.4 4.5-13.1-5.8 11.9z" fill="#265e68" stroke-width="none" opacity="1"></path><path id="SvgjsPath19055" d="m137.4 165.7 1.2-10.5-6-6.2 1.4 10.3-10.3 16.1-14 8.7 18.6-4.5 9.1-13.9zm13.6 6.2-6.2-10.1c.2.6-2.1 9.5-2.1 9.5l-10.3 12.4-15.5 7.2 16.7-3.1 15.7-12.6 1.7-3.3zm24.8 14-3.7-1.9-2.3 5.6 3.9 9.3 3.9 19.2 4.1.2-5.9-32.4zm-7.7-6.5-14.4-4.8-2.5 5-8.3 5.6 19.4.6 4.5 1.2 3.7-5.6-2.4-2zM85 175.6l-10.1-10.3-3.7-7.4-1.4.6 3.1 11.6 11.6 9.1 14.4 5.6 3.1 3.9-3.3-5.6-13.7-7.5zm43.1-12.5-16.7 16.1-6.6 8.5 13.4-11.6 9.9-13z" fill="#4d7e86" stroke-width="none" opacity="1"></path></g><g id="svga-group-head" transform="matrix(1,0,0,1,0,0)"><g id="svga-group-ears-left-move" transform="matrix(1,0,0,1,0,0)"><g id="svga-group-ears-left"><path id="SvgjsPath18914" d="m64.4 98.3-5.3-9.7-7-.9-2 7.2.4 8.9 7 11.4 6.1 4.5 3.8-11.6z" fill="#dba47a" stroke-width="none" opacity="1"></path><path id="SvgjsPath18915" d="m58.4 101.2-4.1-9.8-1.9 5.1.4 5 2.6 6.1-1.6-9.4 1.5-.7 1.3 10.8 2 2.1z" fill="#bc7843" stroke-width="none" opacity="1"></path><path id="SvgjsPath18916" d="m60.7 101-3.2-11.6-5.4-1.7 7 .9 5.3 9.7 3 9.8-3.8 11.6-6.1-4.5 3.6.7z" fill="#cc8d5d" stroke-width="none" opacity="1"></path></g></g><g id="svga-group-ears-right-move" transform="matrix(1,0,0,1,0,0)"><g id="svga-group-ears-right"><path id="SvgjsPath18917" d="m135.6 98.3 5.3-9.7 7-.9 2 7.2-.4 8.9-7 11.4-6.1 4.5-3.8-11.6z" fill="#dba47a" stroke-width="none" opacity="1"></path><path id="SvgjsPath18918" d="m141.6 101.2 4.1-9.8 1.9 5.1-.4 5-2.6 6.1 1.6-9.4-1.5-.7-1.3 10.8-2 2.1z" fill="#bc7843" stroke-width="none" opacity="1"></path><path id="SvgjsPath18919" d="m139.3 101 3.2-11.6 5.4-1.7-7 .9-5.3 9.7-3 9.8 3.8 11.6 6.1-4.5-3.6.7z" fill="#cc8d5d" stroke-width="none" opacity="1"></path></g></g><g id="svga-group-faceshape-wrap"><g id="svga-group-faceshape-single"><path id="SvgjsPath18879" d="M138.1 60c-6.9-11.6-19.7-19.5-19.7-19.5-7.2-1.5-18.4-2.3-18.4-2.3s-11.1.8-18.4 2.3c0 0-12.8 7.9-19.7 19.5 0 0-5.1 14.5-5.3 24.8l4.9 33.9 14.2 24.8 16.9 11.7h14.9l16.9-11.7 14.2-24.8 4.9-33.9c-.3-10.3-5.4-24.8-5.4-24.8z" fill="#dba47a" stroke-width="none" opacity="1"></path><path id="SvgjsPath18880" d="m92.7 152.7-14.6-12.3s-11.4-20.9-11.8-21.7c-.4-.9-5-34.3-5-34.3.2-4.8 4.5-21.5 5-22.2 2.1-3.2 16.5-18 16.5-18l17.1-4.1 18.5.4c-7.2-1.5-18.4-2.3-18.4-2.3s-11.1.8-18.4 2.3c0 0-12.8 7.9-19.7 19.5 0 0-5.1 14.5-5.3 24.8l4.9 33.9 14.2 24.8 16.9 11.7h14.9l16.9-11.7-18 10.4-13.7-1.2z" fill="#bc7843" stroke-width="none" opacity="1"></path></g></g><g id="svga-group-mouth-single-move" transform="matrix(1,0,0,1,0,0)"><g id="svga-group-mouth-single"><path id="SvgjsPath19090" d="m84.99 125.5 2.75 3.94 12.37-.68 12.45.84 3.02-3.87-3.73 2.46-6.81-2.5-4.93 1.46-4.57-1.35-7.7 1.93z" fill="#da7c87" stroke-width="none" opacity="1" transform="translate(0 2)"></path><path id="SvgjsPath19091" d="m89.12 131.92 1.15 2.64 10.05 2.86 10.83-3.61-10.89 2.15-9.41-2.31-1.73-1.73z" fill="#bc7843" stroke-width="none" opacity="1" transform="translate(0 2)"></path></g></g><g id="svga-group-eyes-left-move" transform="matrix(1,0,0,1,0,0)"><g id="svga-group-eyes-left"><g id="svga-group-eyesback-left"><path id="SvgjsPath18958" d="M91.2 95.7 86 91.1l-9 .1-7 3.8s5.8 4.3 7.2 4.9l8.8-.4 5.2-3.8z" fill="#ffffff" stroke-width="none" opacity="1"></path></g><g id="svga-group-eyesiriswrapper-left" transform="matrix(1,0,0,1,0,0)"><g id="svga-group-eyesiriscontrol-left" transform="matrix(1,0,0,1,0,0)"><g id="svga-group-eyesiris-left"><path id="SvgjsPath19002" d="M82.9 89.5h-4L76 92.4v4.1l2.9 2.8h4l2.9-2.8v-4.1z" fill="#32384f" stroke-width="none" opacity="1"></path><path id="SvgjsPath19003" d="M86.1 96.5v-2c0-.7 0-1.4-.1-2v-.2c-.5-.5-1-.9-1.5-1.4-.2-.2-.5-.5-.8-.7-.2-.2-.5-.4-.8-.7-.3 0-.7 0-1-.1s-.7 0-1-.1c-.7 0-1.4-.1-2.1-.1h-.1l-.1.1c-.5.5-1 .9-1.5 1.4l-.7.7-.7.7-.1.1v.1l.1 2c0 .7.1 1.4.1 2l.7.7.7.7c.5.5.9 1 1.4 1.5h.1c.7 0 1.4.1 2 .1H83l.1-.1 1.5-1.4.7-.7.7-.7.1-.1v.2zm-1.2.5-.7.7-1.3 1.4H81c-.7 0-1.3 0-2 .1-.5-.4-1-.9-1.4-1.4l-.7-.7-.7-.7c0-.7 0-1.3.1-2l.1-1.9.7-.7.7-.7 1.4-1.4c.6 0 1.3 0 1.9-.1.3 0 .7 0 1-.1.3 0 .7 0 1-.1l.7.8c.2.2.5.5.7.8.4.5.9.9 1.3 1.4 0 .7 0 1.3-.1 1.9v1.9l-.8.8z" fill="#151b30" stroke-width="none" opacity="1"></path><path id="SvgjsPath19004" d="m82.6 93.2.4 1.5-.8 1.4-1.6.4-1.4-.8-.4-1.6.8-1.4 1.6-.4z" fill="#000000" stroke-width="none" opacity="1"></path><path id="SvgjsPath19005" d="m80.6 96.7-1.5-.9-.4-1.7.9-1.5 1.7-.4 1.5.9.4 1.7-.9 1.5-1.7.4zm-1.2-1.1 1.3.8 1.4-.4.8-1.3-.4-1.4-1.3-.8-1.4.4-.8 1.3.4 1.4z" fill="#151b30" stroke-width="none" opacity="1"></path><path id="SvgjsPath19006" d="m78.7 90.9.8-.4 1.1 2.4-.8.4-1.1-2.4z" fill="#ffffff" stroke-width="none" opacity="1"></path><path id="SvgjsPath19007" d="M81.2 95.5h1v1h-1v-1z" fill="#ffffff" stroke-width="none" opacity="1"></path></g></g></g><g id="svga-group-eyesfront-left"><path id="SvgjsPath18966" d="M67.1 89.3v11.9l7.9 8.4h11.2l7.9-8.4V89.3l-7.9-8.4H75l-7.9 8.4zm3 5.7 7-3.8 9-.1 5.1 4.6-5.2 3.9-8.8.4c-1.3-.8-7.1-5-7.1-5z" fill="#dba47a" stroke-width="none" opacity="1"></path><path id="SvgjsPath18967" d="m91.7 96.1-1.2-.6-4.7-4.1H77l-7.2 4-1 .2 7.9-5 9.6-.1z" fill="#000000" stroke-width="none" opacity="1"></path><path id="SvgjsPath18968" d="m90.8 94-4-4.1-9.8-.1-8.1 3.6 8.1-3.1h9.7z" fill="#cc8d5d" stroke-width="none" opacity="1"></path></g></g></g><g id="svga-group-eyes-right-move" transform="matrix(1,0,0,1,0,0)"><g id="svga-group-eyes-right"><g id="svga-group-eyesback-right"><path id="SvgjsPath18959" d="m108.8 95.7 5.1-4.6 9 .1 7 3.8s-5.8 4.3-7.2 4.9l-8.8-.4-5.1-3.8z" fill="#ffffff" stroke-width="none" opacity="1"></path></g><g id="svga-group-eyesiriswrapper-right" transform="matrix(1,0,0,1,0,0)"><g id="svga-group-eyesiriscontrol-right" transform="matrix(1,0,0,1,0,0)"><g id="svga-group-eyesiris-right"><path id="SvgjsPath19008" d="M121.1 89.5H117l-2.9 2.9v4.1l2.9 2.8h4.1l2.8-2.8v-4.1z" fill="#32384f" stroke-width="none" opacity="1"></path><path id="SvgjsPath19009" d="M124.2 96.5v-2c0-.7 0-1.4-.1-2v-.1l-.1-.1c-.5-.5-1-.9-1.5-1.4-.2-.2-.5-.5-.8-.7-.2-.2-.5-.4-.8-.7-.3 0-.7 0-1-.1s-.7 0-1-.1c-.7 0-1.4-.1-2.1-.1h-.1l-.1.1c-.5.5-1 .9-1.5 1.4l-.7.7-.7.7-.1.1v.1l.1 2c0 .7.1 1.4.1 2l.7.7.7.7c.5.5.9 1 1.4 1.5h.1c.7 0 1.4.1 2 .1h2.1l.1-.1 1.5-1.4.7-.7.7-.7.1-.1.3.2zm-1.2.5-.7.7-1.3 1.4h-1.9c-.7 0-1.3 0-2 .1-.5-.4-1-.9-1.4-1.4l-.7-.7-.7-.7c0-.7 0-1.3.1-2l.1-1.9.7-.7.7-.7 1.4-1.4c.6 0 1.3 0 1.9-.1.3 0 .7 0 1-.1.3 0 .7 0 1-.1l.7.8c.2.2.5.5.7.8.4.5.9.9 1.3 1.4 0 .7 0 1.3-.1 1.9v1.9l-.8.8z" fill="#151b30" stroke-width="none" opacity="1"></path><path id="SvgjsPath19010" d="m120.7 93.2.4 1.5-.8 1.4-1.6.4-1.4-.8-.4-1.6.9-1.4 1.5-.4z" fill="#000000" stroke-width="none" opacity="1"></path><path id="SvgjsPath19011" d="m118.7 96.7-1.5-.9-.4-1.7.9-1.5 1.7-.4 1.5.9.4 1.7-.9 1.5-1.7.4zm-1.2-1.1 1.3.8 1.4-.4.8-1.3-.4-1.4-1.3-.8-1.4.4-.8 1.3.4 1.4z" fill="#151b30" stroke-width="none" opacity="1"></path><path id="SvgjsPath19012" d="m116.8 90.9.8-.4 1.1 2.4-.8.4-1.1-2.4z" fill="#ffffff" stroke-width="none" opacity="1"></path><path id="SvgjsPath19013" d="M119.3 95.5h1v1h-1v-1z" fill="#ffffff" stroke-width="none" opacity="1"></path></g></g></g><g id="svga-group-eyesfront-right"><path id="SvgjsPath18969" d="M125 80.8h-11.2l-7.9 8.4v11.9l7.9 8.4H125l7.9-8.4V89.3l-7.9-8.5zm-2.3 19.1-8.8-.4-5.1-3.8 5.1-4.6 9 .1 7 3.8s-5.8 4.2-7.2 4.9z" fill="#dba47a" stroke-width="none" opacity="1"></path><path id="SvgjsPath18972" d="m108.3 96.1 1.2-.6 4.7-4.1h8.8l7.2 4 1 .2-7.9-5-9.6-.1z" fill="#000000" stroke-width="none" opacity="1"></path><path id="SvgjsPath18973" d="m109.2 94 4-4.1 9.8-.1 8.1 3.6-8.1-3.1h-9.7z" fill="#cc8d5d" stroke-width="none" opacity="1"></path></g></g></g><g id="svga-group-facehighlight-single"></g><g id="svga-group-eyebrows-left-move" transform="matrix(1,0,0,1,0,0)"><g id="svga-group-eyebrows-left-rotate" transform="matrix(1,0,0,1,0,0)"><g id="svga-group-eyebrows-left"><path id="SvgjsPath19068" d="m90.2 77.1 1.5 3.8-.6 4.6-14.8-.6-12.7.3 1.4-1.8 13.6-6z" fill="#2a232b" stroke-width="none" opacity="1"></path><path id="SvgjsPath19069" d="m86.9 78.8-1.5 6.4h-1l2.5-6.4zm3.9-.3.1.2-2.7 6.6-1.4-.1 4-6.7zm-16.5 6.4-2.5-3.3 3.4 3.3h-.9zm-4 .1-2 .1L66 84l4.3 1zm9.9-6.5.8 6.6h-.8v-6.6zM78.3 85l-.2-3 1 3.1-.8-.1z" fill="#1b141c" stroke-width="none" opacity="1"></path></g></g></g><g id="svga-group-eyebrows-right-move" transform="matrix(1,0,0,1,0,0)"><g id="svga-group-eyebrows-right-rotate" transform="matrix(1,0,0,1,0,0)"><g id="svga-group-eyebrows-right"><path id="SvgjsPath19070" d="m109.8 77.1-1.5 3.8.6 4.6 14.8-.6 12.7.3-1.4-1.8-13.6-6z" fill="#2a232b" stroke-width="none" opacity="1"></path><path id="SvgjsPath19071" d="m113.1 78.8 1.5 6.4h1l-2.5-6.4zm-3.9-.3-.1.2 2.7 6.6 1.4-.1-4-6.7zm16.5 6.4 2.5-3.3-3.4 3.3h.9zm4 .1 2 .1L134 84l-4.3 1zm-9.9-6.5-.8 6.6h.8v-6.6zm1.9 6.5.2-3-1 3.1.8-.1z" fill="#1b141c" stroke-width="none" opacity="1"></path></g></g></g><g id="svga-group-beardwrap"><g id="svga-group-beard-single-move" transform="matrix(1,0,0,1,0,0)"><g id="svga-group-beard-single"><path id="SvgjsPath19129" d="m83.1 148.8 8 11.7 9.1 1.6 9.3-2.3 8.1-11.6-1.6-1.9-8-1.3H91.9l-6.1 1.6z" fill="#2a232b" stroke-width="none" opacity="1"></path><path id="SvgjsPath19130" d="M116 146.3h-.2l-7.4 11.8-.7.2 2.5-10.5-4.2 11-2.3.7-.7-4.4-.4 4.7-1.6.5-1.9-8.2.2 8.1-3.1-1.4-3.6-11.3 1.6 10.4-1.5-.6-5.2-11.3-1.7.5-2.7 2.2 8 11.7 9 1.6 9.3-2.4 8.1-11.6-1.5-1.7zM96.7 145h-2.2c.7 2.6 3 11.1 3.1 11.7-.2-.6-.7-8.9-.9-11.7zm6.1 0h-1.7c.1 2.9.3 10.5.3 10.1 0-.5 1-7.5 1.4-10.1zm5.2 0h-2.2l-.6 10.3 3.3-10.2-.5-.1z" fill="#1b141c" stroke-width="none" opacity="1"></path></g></g></g><g id="svga-group-mustache-single-move" transform="matrix(1,0,0,1,0,0)"><g id="svga-group-mustache-single"></g></g><g id="svga-group-nose-single-move" transform="matrix(1,0,0,1,0,0)"><g id="svga-group-nose-single"><path id="SvgjsPath19105" d="m100.22 120.13-3.87-2.61-3.17 1.74-2.29-3.79 2.76-4.04 2.7-10.52-1.19-5.23 2.21-4.67 2.77-1.1 2.85 1.66 1.59 4.51-1.27 4.03 1.51 4.7 1.97 6.86 2.61 3.88-2.29 3.71-3.48-1.18z" fill="#dba47a" stroke-width="none" opacity="1" transform="translate(0 1)"></path><path id="SvgjsPath19106" d="m106.93 111.02-2.82 2.43 2.82-1.11 1.82 3.03-2.02 3.13-2.12-1.21.71-1.62-5.15 4.14-5.15-4.14.7 1.62-2.12 1.21-2.02-3.13 1.82-3.03 2.83 1.11-2.03-2.8 2.77-9.73-1.07-4.59 2.14-5.34-3.15-5.09 1.89 4.84-2.26 4.71 1.13 4.84L93 111.61l-2.73 3.96 2.83 4.64 3.33-1.71 2.93 2.42h1.62l2.92-2.42 3.34 1.71 2.83-4.64z" fill="#bc7843" stroke-width="none" opacity="1" transform="translate(0 1)"></path><path id="SvgjsPath19107" d="m104.63 87.03-2.01 4.21 1.57 4.84-1.19 3.96 1.82 4.77-1.07-4.77 1.2-4.03-1.64-4.9z" fill="#bc7843" stroke-width="none" opacity="1" transform="translate(0 1)"></path><path id="SvgjsPath19108" d="M101.47 114.77s2.23-4.26 2.23-4.55c0-.29-1.65-9.88-1.65-9.88l.48-5.14-.97-3.58-1.65 9.4v13.27l1.56.48z" fill="#e3b08a" stroke-width="none" opacity="1" transform="translate(0 1)"></path><path id="SvgjsPath19109" d="m93.1 120.21 3.33-1.71 2.93 2.42h1.62l2.92-2.42 3.34 1.71 2.83-4.64-3.14-4.55-2.82 2.43 2.82-1.11 1.82 3.03-2.02 3.13-2.12-1.21.71-1.62-5.15 4.14-5.15-4.14.7 1.62-2.12 1.21-2.02-3.13 1.82-3.03 2.83 1.11-2.03-2.8-1.2.96-2.73 3.96z" fill="#bc7843" stroke-width="none" opacity="1" transform="translate(0 1)"></path></g></g><g id="svga-group-hair-front"><path id="SvgjsPath19141" d="M79.5 54.5 67 63l-6.3 29.7s1.6 32.2 1.4 33.3c-.3 1.1-8.7 15.5-8.7 15.5l5.5-16.9-3-36 .3 32.7-3.3 12.3 1.4-20.4-1.6-35.7L55 55.6l8.7-10.9 9.3-3 12.3-13.9 21.3-3L136 38.4s10.4 25.4 10.6 26.2c.3.8-1.9 23.2-1.9 23.2l-4.9 21.3.6 19.9 4.9 16.1-9.8-15.5-2.2-12.5.8 13.4 3 13.6-5.7-13.9-2.2-20.2 5.7-42.5-8.2-8.5-7.6-5.5-14.4 3H88.5l-9-2z" fill="#2a232b" stroke-width="none" opacity="1"></path><path id="SvgjsPath19142" d="m97.9 52.8-.2-13.1 15.4-6 14.1 6.8 6.9 9.1.8 8.9-3.3-9.3-7.5-7.3-12.7-3.9-10.2 4.8-3.3 10zm-8.1 1.9-4-4.6 7.5-11.8-4.6 11.4 1.1 5zm-7.9-13.5 5.8-9.4L107 26l29 12.5-28.4-10.3L88.9 34l-7 7.2zM139 57.8l2.3 13.1-5.8 36 1.7 22.2 3.7 6.9-2.1-7.7-.6-21.8 6-36.4-5.2-12.3zM75.2 52l-13.9 8.9L58 90l5.4-28 11.8-10z" fill="#322c33" stroke-width="none" opacity="1"></path><path id="SvgjsPath19143" d="m88.5 56.4-4.6-5.8L92.7 37l20.8-4.8 13.7 7.2 8.4 9.4-7.8-10.3-14.8-8-22 5.3-10.3 14.8 3.9 5 3.9.8zm-9-1.9-3.1-5L85.8 31l20.7-6.1-21.3 3L73 41.7l.6 7.8 5.9 5zm-7.6-8.9L57.6 56.1l-2.7 21.8.8 6.7.6-7.3 3.4-20.8 12.2-10.9zm7.6 8.9-14.2 7.6-6.1 30.3 2.7 22.2-.5-23.4 6.6-28 11.5-8.7zm56-4.3 2.6 16-6.1 37.9 1.3 12.9-2.7-12.1 6-39.5-1.1-15.2zm-30.9 6.2.2-10.2 10.2-6.4 14.8 8.9 5.1 12.5v6l-1.6-6.8-5.8-10.8-12.9-6.5-8.1 4.5-1.9 8.8zm14.5-3 5-2.7 5.7 8.1 1.9 4.5-3.4-4.9-4.7-5.6-4.5.6z" fill="#221b23" stroke-width="none" opacity="1"></path></g><g id="svga-group-glasses-single-move" transform="matrix(1,0,0,1,0,0)"><g id="svga-group-glasses-single"></g></g></g></g></g><rect id="svga-credit-rect" width="200" height="15" x="0" y="185" fill="#ecf0f1" opacity="0.5" style="display: none;"></rect><text id="svga-credit-text" font-family="Avenir Next, Roboto, Helvetica, Arial, sans-serif" font-size="10px" text-anchor="start" font-weight="400" size="10px" anchor="start" weight="400" fill="#333333" x="33.311859130859375" y="182.60824728012085" style="display: none;"><tspan id="SvgjsTspan18878" dy="13" x="33.311859130859375">Created on AvatarMaker.com</tspan></text></g><defs id="SvgjsDefs18825"></defs></svg>