<svg width="26" height="26" viewBox="0 0 26 26" fill="none" xmlns="http://www.w3.org/2000/svg">
<path fill-rule="evenodd" clip-rule="evenodd" d="M7.02724 2.52788C8.05614 2.44577 9.03293 2.04118 9.81853 1.37169C11.6518 -0.190628 14.3482 -0.190628 16.1815 1.37169C16.9671 2.04118 17.9439 2.44577 18.9728 2.52788C21.3738 2.71949 23.2805 4.62612 23.4721 7.02717C23.5542 8.05608 23.9588 9.03286 24.6283 9.81847C26.1906 11.6518 26.1906 14.3481 24.6283 16.1814C23.9588 16.967 23.5542 17.9438 23.4721 18.9727C23.2805 21.3738 21.3738 23.2804 18.9728 23.472C17.9439 23.5541 16.9671 23.9587 16.1815 24.6282C14.3482 26.1905 11.6518 26.1905 9.81853 24.6282C9.03293 23.9587 8.05614 23.5541 7.02724 23.472C4.62618 23.2804 2.71955 21.3738 2.52794 18.9727C2.44583 17.9438 2.04124 16.967 1.37175 16.1814C-0.190567 14.3481 -0.190567 11.6518 1.37175 9.81847C2.04124 9.03286 2.44583 8.05608 2.52794 7.02717C2.71955 4.62612 4.62618 2.71949 7.02724 2.52788ZM18.9314 10.9313C19.5562 10.3065 19.5562 9.29342 18.9314 8.66858C18.3065 8.04374 17.2935 8.04374 16.6686 8.66858L11.4 13.9372L9.33138 11.8686C8.70654 11.2437 7.69348 11.2437 7.06864 11.8686C6.4438 12.4934 6.4438 13.5065 7.06864 14.1313L10.2686 17.3313C10.8935 17.9562 11.9065 17.9562 12.5314 17.3313L18.9314 10.9313Z" fill="#D44A78"/>
</svg>
