<svg width="28" height="26" viewBox="0 0 28 26" fill="none" xmlns="http://www.w3.org/2000/svg">
<path d="M1.20293 5.25H27.0074C27.5556 5.25 27.9999 4.80231 27.9999 4.25V1.75C27.9999 1.19769 27.5556 0.75 27.0074 0.75H1.20293C0.654771 0.75 0.210449 1.19769 0.210449 1.75V4.25C0.210449 4.80231 0.654771 5.25 1.20293 5.25ZM1.20293 15.25H27.0074C27.5556 15.25 27.9999 14.8023 27.9999 14.25V11.75C27.9999 11.1977 27.5556 10.75 27.0074 10.75H1.20293C0.654771 10.75 0.210449 11.1977 0.210449 11.75V14.25C0.210449 14.8023 0.654771 15.25 1.20293 15.25ZM1.20293 25.25H27.0074C27.5556 25.25 27.9999 24.8023 27.9999 24.25V21.75C27.9999 21.1977 27.5556 20.75 27.0074 20.75H1.20293C0.654771 20.75 0.210449 21.1977 0.210449 21.75V24.25C0.210449 24.8023 0.654771 25.25 1.20293 25.25Z" fill="#f2f2f2"/>
</svg>
